# xmcd
#
# Track frame offsets:
#	150
#	11785
#	32495
#	52915
#	74325
#	99200
#	125710
#	149395
#	196710
#	214100
#	235945
#	281195
#	306050
#	335460
#
# Disc length: 4774 seconds
#
# Revision: 1
# Processed by: cddbd v1.5.1PL0 Copyright (c) Steve Scherf et al.
# Submitted via: EasyCDDAExtractor 8.0.2.1
#
DISCID=c812a40e
DTITLE=Ozzy Osbourne - Mecca Auditorium Milwaukee 04-06-86
DYEAR=1986
DGENRE=Hard Rock
TTITLE0=Intro
TTITLE1=Bark At The Moon
TTITLE2=Suicide Solution
TTITLE3=Never Know Why
TTITLE4=Mr Crowley
TTITLE5=Shot In The Dark
TTITLE6=I Don't Know
TTITLE7=Killer Of Giants
TTITLE8=Thank God For The Bomb
TTITLE9=Flying High Again
TTITLE10=Secret Loser
TTITLE11=Iron Man
TTITLE12=Crazy Train
TTITLE13=Paranoid
EXTD=
EXTT0=
EXTT1=
EXTT2=
EXTT3=
EXTT4=
EXTT5=
EXTT6=
EXTT7=
EXTT8=
EXTT9=
EXTT10=
EXTT11=
EXTT12=
EXTT13=
PLAYORDER=
